<svg id="Layer_1" data-name="Layer 1" xmlns="http://www.w3.org/2000/svg" viewBox="0 0 2001.32 613"><defs><style>.cls-1{fill:#fff;}</style></defs><title>fastify</title><path class="cls-1" d="M1250.69,400.33,1283.13,412c-1.16-8.5-1.94-16.1-3.34-23.57-.65-3.45,0-5.11,3.29-6.44,4.32-1.74,8.68-3.28,10-9.08,2.57-11.66,5.85-23.17,8.88-34.73,7.26-27.6,14.44-55.23,22-82.76.74-2.69,3.15-5.46,5.54-7.1q57.45-39.47,115.14-78.62c5.74-3.91,11.57-7.7,17.81-11.84a10,10,0,0,1-.13,2.28c-7.67,19-14.46,38.5-26.16,55.69-17.57,25.82-39.74,45.76-69.79,56.05-5.92,2-12.77,3.52-17.1,7.52A72.76,72.76,0,0,0,1333.81,300c-10.37,20.85-10.3,44-13.28,66.94,1.86-.23,3.15-.27,4.38-.56,15.76-3.63,31-2.48,45.71,4.59,33.9,16.3,51.94,43.86,56.4,80.61,1.27,10.47-1.82,20.06-10.4,27.25-4.19,3.51-8.21,7.24-12.07,11.11a21.92,21.92,0,0,1-19.26,6.68c-4.19-.5-8.48-.09-13.41-.09,0,5.79-.14,10.77,0,15.74.15,4.35-1.77,5.9-6,5.78-6.8-.2-13.62-.06-21.35-.06,0,5.18,0,10,0,14.76-.06,5.47-4.61,10.07-9.81,8.87a218.32,218.32,0,0,1-27.61-7.92c-7.15-2.69-13.71-7-21-10.77.14,2.61-.18,4.9.45,6.88,2.92,9.15,5.74,18.36,9.33,27.26,1.92,4.76,4.27,10.51,8.21,13.1,19.1,12.55,39.73,22,62.36,26.44,14,2.74,28,2.7,40.94-4,11.18-5.81,22-12.31,32.7-19,41.12-25.89,81.08-53.67,124-76.65,12.86-6.88,25.72-14.28,39.44-18.87,20.1-6.73,41-11.12,61.51-16.55q43.56-11.52,87.1-23.1c26.79-7.09,53.61-14.08,80.37-21.32a8,8,0,0,0,4.64-4.1c8.73-21.88,17.25-43.84,25.78-65.8,1.21-3.13,2.19-6.36,3.52-10.21l-177.2,46.6v-60c0-11.58,0-11.55,11.09-14.46q51-13.38,102.08-26.81c30.66-8.05,61.34-16.05,92-24.25a7.38,7.38,0,0,0,4.2-3.87c3.47-8.26,6.6-16.67,9.82-25,6.49-16.81,13-33.63,19.77-51.29L1689.5,240.65V169.3q37.9-9.95,75.62-19.85,53-14,105.89-28c27.92-7.35,55.88-14.56,83.78-22,1.94-.52,4.48-2,5.14-3.66q13.48-34,26.4-68.2c.84-2.2.53-4.84.83-8.11L1703.42,94.13c15.71-24.3,24.64-49.27,19.76-78.27-2,1-3.2,1.46-4.32,2.14-27.39,16.42-55.92,30.47-86.17,40.83-17.94,6.14-36.16,11.09-55.26,12.33-23.41,1.53-46.57-1.27-69.71-3.83-24.83-2.74-49.62-3.15-74.1,1.84-19.81,4-39.43,9.18-58.95,14.5-28.63,7.82-54,22-76.48,41.32-25.82,22.12-45.1,49.51-63.43,77.74-11.18,17.22-21.91,34.48-39.35,46.93-35.53,25.34-70.17,51.92-105.16,78-4.16,3.1-8.21,6.35-12.31,9.53l.59,1.07L1161,312.1l-71.86,88.5c10,14.19,21.09,26.46,34.48,36.49,17.09,12.81,35.23,18.51,55.7,7.72,1.22-.64,3.42,0,4.93.57,10.13,4.12,20,8.92,30.33,12.47,8.11,2.79,16.73,4.09,26.1,6.28l-28.26-38.34c5.09-4.72,9.06-7.58,15.87-4.18,8,4,16.86,6.25,25.88,9.46C1253,420.61,1251.9,410.93,1250.69,400.33Zm-247.06-205c-1-.43-1.27-.67-1.56-.67-17.66-.05-35.32-.15-53,0-1.29,0-3.24,1.94-3.73,3.37q-7,20.47-13.6,41.11-16.41,51.44-32.63,102.92c-1.14,3.6-2.22,7.21-3.33,10.82l-.65-.2c-.73-52.56-1.46-105.12-2.19-158.37H791.49c1.43-11.48,3.81-21.92,9.34-31.44,7.45-12.83,17.81-20.48,33.38-18.75,4.1.45,8.16,1.26,12.71,2l12.7-43.31c-13.69-4.09-27-4.83-40.56-4-27.37,1.76-48,14.7-63.26,37.08-12.58,18.47-17.49,39.59-21.48,61.06q-4.7,25.22-9.58,50.41c-3.78,19.57-7.66,39.12-11.45,58.69q-6.66,34.49-13.24,69c-2.65,13.84-5.26,27.69-8,41.91h57.07q17.57-91.17,35.1-182.25c17.24,0,33.56.06,49.88-.06,3.16,0,3.83,1.34,4.13,4.12q4.92,45.39,10,90.75c2.69,24.14,5.25,48.3,8.27,72.39a26.11,26.11,0,0,1-3.71,17.59c-9.33,15.34-22.19,27.25-37,37.14-6.55,4.4-13.58,8.08-20.64,12.23,7.61,15.45,15.12,30.72,23.27,47.28,9.9-6.65,19.67-12.56,28.7-19.42,21.28-16.16,36.41-37.62,50.13-60.14,19.67-32.28,33.89-67.15,48.22-102,11.11-27,22.42-53.89,33.65-80.84ZM599.5,416.84a20.89,20.89,0,0,0,2.55.39c17,0,34-.05,51,.1,3.17,0,3.87-1.53,4.35-4.1q7.67-40.38,15.46-80.72,10.46-54.3,21-108.58c1.85-9.58,3.64-19.17,5.61-29.53h-125c3.81-20.42,7.48-40.06,11.22-60.06-18.94,4.45-37,8.62-55.09,13.07a7.68,7.68,0,0,0-4.84,4c-1.34,3.7-1.68,7.76-2.44,11.67-2,10.38-4,20.77-6.13,31.46-7.85,0-15.16-.13-22.46.11-1.41,0-3.79,1.28-4,2.32-2.55,12.32-4.77,24.71-7.24,37.94H509.3c-2.77,14.82-5.37,28.85-8,42.87-4.09,21.53-8.49,43-12.24,64.61-2.24,12.9-4.93,25.81-2.81,39.13C489,399,497.38,412,514.71,417.71c17.8,5.89,35.83,3.45,53.78.39a3.9,3.9,0,0,0,2.69-2.31c2.36-13.49,4.54-27,6.79-40.74-6.7,0-12.85.21-19-.05-6.89-.29-11.93-3.77-12.54-10.48-.78-8.49-1-17.34.5-25.7,5.83-33.36,12.41-66.6,18.63-99.89.59-3.14,1.82-4.33,5.21-4.3,19.82.17,39.65.08,59.48.1,1.28,0,2.57.22,4.21.37C622.81,295.74,611.2,356,599.5,416.84Zm-307,.2c.61-11.06.76-21.55,1.87-32,2-19.16,4-38.36,7.15-57.37,3.26-20,7.8-39.74,11.76-59.6,4.12-20.68,8.15-41.38,12.38-62,1.26-6.18,1.26-6.52-4.89-8.29A184.68,184.68,0,0,0,261.58,191c-22.75,1-43.77,7.53-62.2,21.24-27.14,20.2-42.36,48.25-51.84,79.9a209.69,209.69,0,0,0-8.73,55c-.39,15.41.68,30.47,6.34,45.08,9.39,24.26,35.71,35.37,59.73,25.17,16-6.79,27.05-18.81,36.44-32.79,1-1.51,2.1-3,3.16-4.46l.83.52c-.52,12.05-1,24.09-1.56,36.36Zm-111-314.25c-13.62-4.12-26.93-4.84-40.47-4-31.18,2-52.86,18.25-68,44.66C61.89,163.08,58.69,185,54.39,206.65c-4.12,20.68-7.94,41.43-11.94,62.14s-8.06,41.4-12.07,62.1Q24,363.67,17.74,396.45c-1.29,6.74-2.4,13.53-3.68,20.79,18.73,0,36.7.09,54.66-.19,1.17,0,3-2.68,3.34-4.35,6.71-34.56,13.23-69.17,19.8-103.76,4.5-23.65,9.07-47.29,13.48-71,.53-2.89,2-3.3,4.49-3.29,11.16.08,22.33-.2,33.48.15,4.3.14,6-1.35,6.51-5.36.43-3.46,1.33-6.85,2-10.28,1.51-8.08,3-16.16,4.6-25H113.23c1.8-12,4.32-23.17,10.52-33.07,7.46-11.9,17.72-18.74,32.35-17,4.23.48,8.41,1.28,12.82,2C173.1,131.74,177.23,117.6,181.56,102.79Zm152,265.91c-4.15,12.17-8,24.11-12.34,35.89-1.47,4,0,5.56,3.4,7.05,22.34,9.83,45.39,10.66,68.86,5.54,36.78-8,56.63-33.33,58.51-69.49,1.18-22.44-9-40.39-25-55.35-6.06-5.66-12.71-10.73-18.43-16.7a24.62,24.62,0,0,1-4.1-28.65c4.82-8.94,13.09-12.24,22.69-13,10.68-.84,20.76,1.54,30.73,6.5,4.17-14.1,8.21-27.7,12.43-42-4.83-1.6-9.11-3.33-13.55-4.43a114.76,114.76,0,0,0-43.1-2.22c-20.33,2.7-38,10.69-51.4,26.56-21.16,25.09-23.93,62.55-.24,89.44,6.75,7.67,15,14,22.43,21.12s11.78,15.78,10.59,26.3c-1.8,15.92-13.09,23.76-31.16,22.44A72.62,72.62,0,0,1,333.59,368.7ZM653,141.21c-.38,8.32,2.56,18.31,13.18,23.59,11,5.49,21.89,3.59,31.9-3.63,10.3-7.44,13.63-18.28,13.87-30,.45-22.26-20.17-35.71-39.87-25.89C658.8,111.85,653,123.61,653,141.21Z"/><path d="M1250.69,400.33c1.21,10.6,2.31,20.28,3.51,30.74-9-3.21-17.88-5.48-25.88-9.46-6.81-3.4-10.78-.54-15.87,4.18l28.26,38.34c-9.37-2.19-18-3.49-26.1-6.28-10.32-3.55-20.2-8.35-30.33-12.47-1.51-.61-3.71-1.21-4.93-.57-20.47,10.79-38.61,5.09-55.7-7.72-13.39-10-24.46-22.3-34.48-36.49L1161,312.1l-82.5,26.17-.59-1.07c4.1-3.18,8.15-6.43,12.31-9.53,35-26.09,69.63-52.67,105.16-78,17.44-12.45,28.17-29.71,39.35-46.93,18.33-28.23,37.61-55.62,63.43-77.74,22.53-19.32,47.85-33.5,76.48-41.32,19.52-5.32,39.14-10.46,58.95-14.5,24.48-5,49.27-4.58,74.1-1.84,23.14,2.56,46.3,5.36,69.71,3.83,19.1-1.24,37.32-6.19,55.26-12.33,30.25-10.36,58.78-24.41,86.17-40.83,1.12-.68,2.35-1.17,4.32-2.14,4.88,29-4,54-19.76,78.27l283.74-74.66c-.3,3.27,0,5.91-.83,8.11q-13,34.19-26.4,68.2c-.66,1.66-3.2,3.14-5.14,3.66-27.9,7.44-55.86,14.65-83.78,22q-53,14-105.89,28-37.75,10-75.62,19.85v71.35l238.72-62.78c-6.81,17.66-13.28,34.48-19.77,51.29-3.22,8.36-6.35,16.77-9.82,25a7.38,7.38,0,0,1-4.2,3.87c-30.62,8.2-61.3,16.2-92,24.25q-51,13.41-102.08,26.81c-11.09,2.91-11.09,2.88-11.09,14.46v60L1866.5,337c-1.33,3.85-2.31,7.08-3.52,10.21-8.53,22-17,43.92-25.78,65.8a8,8,0,0,1-4.64,4.1c-26.76,7.24-53.58,14.23-80.37,21.32q-43.56,11.52-87.1,23.1c-20.53,5.43-41.41,9.82-61.51,16.55-13.72,4.59-26.58,12-39.44,18.87-42.9,23-82.86,50.76-124,76.65-10.67,6.72-21.52,13.22-32.7,19-12.94,6.72-26.93,6.76-40.94,4-22.63-4.42-43.26-13.89-62.36-26.44-3.94-2.59-6.29-8.34-8.21-13.1-3.59-8.9-6.41-18.11-9.33-27.26-.63-2-.31-4.27-.45-6.88,7.26,3.8,13.82,8.08,21,10.77a218.32,218.32,0,0,0,27.61,7.92c5.2,1.2,9.75-3.4,9.81-8.87,0-4.79,0-9.58,0-14.76,7.73,0,14.55-.14,21.35.06,4.23.12,6.15-1.43,6-5.78-.18-5,0-9.95,0-15.74,4.93,0,9.22-.41,13.41.09a21.92,21.92,0,0,0,19.26-6.68c3.86-3.87,7.88-7.6,12.07-11.11,8.58-7.19,11.67-16.78,10.4-27.25-4.46-36.75-22.5-64.31-56.4-80.61-14.69-7.07-29.95-8.22-45.71-4.59-1.23.29-2.52.33-4.38.56,3-23,2.91-46.09,13.28-66.94a72.76,72.76,0,0,1,15.38-20.58c4.33-4,11.18-5.5,17.1-7.52,30-10.29,52.22-30.23,69.79-56.05,11.7-17.19,18.49-36.64,26.16-55.69a10,10,0,0,0,.13-2.28c-6.24,4.14-12.07,7.93-17.81,11.84q-57.61,39.24-115.14,78.62c-2.39,1.64-4.8,4.41-5.54,7.1-7.52,27.53-14.7,55.16-22,82.76-3,11.56-6.31,23.07-8.88,34.73-1.28,5.8-5.64,7.34-10,9.08-3.29,1.33-3.94,3-3.29,6.44,1.4,7.47,2.18,15.07,3.34,23.57Zm321.61-56c19.09-5,37.21-9.73,55.28-14.63,1.25-.34,2.56-2,3.09-3.3q7.72-19.39,15.14-38.94c.59-1.56.45-3.41.71-5.62-18.2,4.78-35.69,9.32-53.12,14.08a6.52,6.52,0,0,0-3.47,3.61C1584.06,314.14,1578.37,328.83,1572.3,344.33Zm-.22-46.48c-18.44,4.79-35.59,9.21-52.71,13.78-1.44.38-3.3,1.49-3.79,2.73-6,15-11.77,30.07-17.92,46,17.86-4.71,34.77-9.31,51.77-13.56,4.13-1,6.2-3,7.67-7,4.35-12,9.29-23.76,13.89-35.66C1571.65,302.39,1571.65,300.43,1572.08,297.85Zm19.49-62.7c-5.39,1.44-10,2.7-14.68,3.91q-18.3,4.74-36.63,9.45c-3,.77-5,2.14-6.11,5.53-2.74,8.15-6.25,16-9.35,24.09-2.36,6.09-4.58,12.24-7,18.63a9.13,9.13,0,0,0,2.21.22c17.33-4.53,34.67-9,52-13.71a5.88,5.88,0,0,0,3.31-3.15q7.79-19.38,15.21-38.91C1591.19,239.47,1591.19,237.47,1591.57,235.15Z"/><path d="M1003.63,195.28l-24.38,58.51c-11.23,27-22.54,53.85-33.65,80.84-14.33,34.82-28.55,69.69-48.22,102-13.72,22.52-28.85,44-50.13,60.14-9,6.86-18.8,12.77-28.7,19.42-8.15-16.56-15.66-31.83-23.27-47.28,7.06-4.15,14.09-7.83,20.64-12.23,14.76-9.89,27.62-21.8,37-37.14a26.11,26.11,0,0,0,3.71-17.59c-3-24.09-5.58-48.25-8.27-72.39q-5.07-45.36-10-90.75c-.3-2.78-1-4.15-4.13-4.12-16.32.12-32.64.06-49.88.06Q766.71,325.85,749.16,417H692.09c2.7-14.22,5.31-28.07,8-41.91q6.6-34.5,13.24-69c3.79-19.57,7.67-39.12,11.45-58.69q4.88-25.18,9.58-50.41c4-21.47,8.9-42.59,21.48-61.06,15.24-22.38,35.89-35.32,63.26-37.08,13.55-.87,26.87-.13,40.56,4l-12.7,43.31c-4.55-.72-8.61-1.53-12.71-2-15.57-1.73-25.93,5.92-33.38,18.75-5.53,9.52-7.91,20-9.34,31.44H893c.73,53.25,1.46,105.81,2.19,158.37l.65.2c1.11-3.61,2.19-7.22,3.33-10.82q16.29-51.46,32.63-102.92,6.57-20.62,13.6-41.11c.49-1.43,2.44-3.35,3.73-3.37,17.66-.19,35.32-.09,53,0C1002.36,194.61,1002.65,194.85,1003.63,195.28Z"/><path d="M599.5,416.84c11.7-60.8,23.31-121.1,35-181.74-1.64-.15-2.93-.37-4.21-.37-19.83,0-39.66.07-59.48-.1-3.39,0-4.62,1.16-5.21,4.3-6.22,33.29-12.8,66.53-18.63,99.89-1.46,8.36-1.28,17.21-.5,25.7.61,6.71,5.65,10.19,12.54,10.48,6.13.26,12.28.05,19,.05-2.25,13.73-4.43,27.25-6.79,40.74a3.9,3.9,0,0,1-2.69,2.31c-18,3.06-36,5.5-53.78-.39C497.38,412,489,399,486.22,381.48c-2.12-13.32.57-26.23,2.81-39.13,3.75-21.59,8.15-43.08,12.24-64.61,2.66-14,5.26-28.05,8-42.87H483.47c2.47-13.23,4.69-25.62,7.24-37.94.21-1,2.59-2.28,4-2.32,7.3-.24,14.61-.11,22.46-.11,2.08-10.69,4.11-21.08,6.13-31.46.76-3.91,1.1-8,2.44-11.67a7.68,7.68,0,0,1,4.84-4c18-4.45,36.15-8.62,55.09-13.07-3.74,20-7.41,39.64-11.22,60.06h125c-2,10.36-3.76,19.95-5.61,29.53q-10.47,54.29-21,108.58-7.77,40.35-15.46,80.72c-.48,2.57-1.18,4.13-4.35,4.1-17-.15-34-.08-51-.1A20.89,20.89,0,0,1,599.5,416.84Z"/><path d="M292.54,417H243.75c.53-12.27,1-24.31,1.56-36.36l-.83-.52c-1.06,1.49-2.15,2.95-3.16,4.46-9.39,14-20.44,26-36.44,32.79-24,10.2-50.34-.91-59.73-25.17-5.66-14.61-6.73-29.67-6.34-45.08a209.69,209.69,0,0,1,8.73-55c9.48-31.65,24.7-59.7,51.84-79.9,18.43-13.71,39.45-20.27,62.2-21.24a184.68,184.68,0,0,1,59.23,6.76c6.15,1.77,6.15,2.11,4.89,8.29-4.23,20.65-8.26,41.35-12.38,62-4,19.86-8.5,39.63-11.76,59.6-3.1,19-5.12,38.21-7.15,57.37C293.3,395.49,293.15,406,292.54,417ZM264,235.17c-10.13-3.17-20.63-2.35-27.74,3.4-6,4.83-11.85,10.33-16.11,16.64-14.49,21.49-21.55,45.91-24.41,71.34a138.36,138.36,0,0,0,.9,34.67c1.85,13,15.52,17.22,25.44,8.64a49.43,49.43,0,0,0,8.78-10.08c10-15.24,14.66-32.57,18.4-50.13,3.63-17,6.82-34.17,10.19-51.27C260.93,250.61,262.45,242.84,264,235.17Z"/><path d="M181.56,102.79c-4.33,14.81-8.46,29-12.64,43.28-4.41-.68-8.59-1.48-12.82-2-14.63-1.7-24.89,5.14-32.35,17-6.2,9.9-8.72,21-10.52,33.07h43.16c-1.62,8.81-3.09,16.89-4.6,25-.64,3.43-1.54,6.82-2,10.28-.5,4-2.21,5.5-6.51,5.36-11.15-.35-22.32-.07-33.48-.15-2.46,0-4,.4-4.49,3.29-4.41,23.68-9,47.32-13.48,71-6.57,34.59-13.09,69.2-19.8,103.76-.32,1.67-2.17,4.33-3.34,4.35-18,.28-35.93.19-54.66.19,1.28-7.26,2.39-14.05,3.68-20.79Q24,363.66,30.38,330.89c4-20.7,8.08-41.39,12.07-62.1s7.82-41.46,11.94-62.14c4.3-21.62,7.5-43.57,18.72-63.17,15.12-26.41,36.8-42.65,68-44.66C154.63,98,167.94,98.67,181.56,102.79Z"/><path d="M333.59,368.7a72.62,72.62,0,0,0,30.31,9.05c18.07,1.32,29.36-6.52,31.16-22.44,1.19-10.52-3.18-19.16-10.59-26.3S368.79,315.56,362,307.89c-23.69-26.89-20.92-64.35.24-89.44,13.39-15.87,31.07-23.86,51.4-26.56a114.76,114.76,0,0,1,43.1,2.22c4.44,1.1,8.72,2.83,13.55,4.43-4.22,14.25-8.26,27.85-12.43,42-10-5-20-7.34-30.73-6.5-9.6.76-17.87,4.06-22.69,13a24.62,24.62,0,0,0,4.1,28.65c5.72,6,12.37,11,18.43,16.7,16,15,26.19,32.91,25,55.35-1.88,36.16-21.73,61.47-58.51,69.49-23.47,5.12-46.52,4.29-68.86-5.54-3.39-1.49-4.87-3-3.4-7.05C325.55,392.81,329.44,380.87,333.59,368.7Z"/><path d="M653,141.21c0-17.6,5.8-29.36,19.08-36,19.7-9.82,40.32,3.63,39.87,25.89-.24,11.76-3.57,22.6-13.87,30-10,7.22-20.87,9.12-31.9,3.63C655.56,159.52,652.62,149.53,653,141.21Z"/><path class="cls-1" d="M1572.3,344.33c6.07-15.5,11.76-30.19,17.63-44.8a6.52,6.52,0,0,1,3.47-3.61c17.43-4.76,34.92-9.3,53.12-14.08-.26,2.21-.12,4.06-.71,5.62q-7.43,19.53-15.14,38.94c-.53,1.33-1.84,3-3.09,3.3C1609.51,334.6,1591.39,339.31,1572.3,344.33Z"/><path class="cls-1" d="M1572.08,297.85c-.43,2.58-.43,4.54-1.09,6.26-4.6,11.9-9.54,23.67-13.89,35.66-1.47,4-3.54,6-7.67,7-17,4.25-33.91,8.85-51.77,13.56,6.15-15.9,11.93-31,17.92-46,.49-1.24,2.35-2.35,3.79-2.73C1536.49,307.06,1553.64,302.64,1572.08,297.85Z"/><path class="cls-1" d="M1591.57,235.15c-.38,2.32-.38,4.32-1,6.06q-7.45,19.52-15.21,38.91a5.88,5.88,0,0,1-3.31,3.15c-17.28,4.68-34.62,9.18-52,13.71a9.13,9.13,0,0,1-2.21-.22c2.38-6.39,4.6-12.54,7-18.63,3.1-8,6.61-15.94,9.35-24.09,1.14-3.39,3.08-4.76,6.11-5.53q18.33-4.71,36.63-9.45C1581.54,237.85,1586.18,236.59,1591.57,235.15Z"/><path class="cls-1" d="M264,235.17c-1.5,7.67-3,15.44-4.55,23.21-3.37,17.1-6.56,34.23-10.19,51.27-3.74,17.56-8.37,34.89-18.4,50.13A49.43,49.43,0,0,1,222,369.86c-9.92,8.58-23.59,4.32-25.44-8.64a138.36,138.36,0,0,1-.9-34.67c2.86-25.43,9.92-49.85,24.41-71.34,4.26-6.31,10.13-11.81,16.11-16.64C243.32,232.82,253.82,232,264,235.17Z"/></svg>